<svg width="204" height="204" viewBox="0 0 204 204" fill="none" xmlns="http://www.w3.org/2000/svg">
<path d="M104.917 85.3334C104.917 85.0019 104.785 84.6839 104.551 84.4495C104.316 84.2151 103.998 84.0834 103.667 84.0834C103.335 84.0834 103.017 84.2151 102.783 84.4495C102.548 84.6839 102.417 85.0019 102.417 85.3334V106.227C101.089 104.981 99.3722 104.231 97.5559 104.103C95.7397 103.975 93.9349 104.477 92.4456 105.525C90.9563 106.572 89.8736 108.101 89.3799 109.854C88.8862 111.606 89.0117 113.475 89.7352 115.146C90.4587 116.817 91.736 118.187 93.3519 119.026C94.9678 119.865 96.8236 120.122 98.6064 119.752C100.389 119.383 101.99 118.41 103.14 116.998C104.289 115.586 104.917 113.821 104.917 112V92.405C105.97 93.7111 107.303 94.7643 108.817 95.4874C110.332 96.2105 111.989 96.585 113.667 96.5834C113.998 96.5834 114.316 96.4517 114.551 96.2173C114.785 95.9828 114.917 95.6649 114.917 95.3334C114.917 95.0019 114.785 94.6839 114.551 94.4495C114.316 94.2151 113.998 94.0834 113.667 94.0834C111.346 94.0834 109.12 93.1615 107.479 91.5206C105.839 89.8796 104.917 87.654 104.917 85.3334Z" fill="#BC66FF"/>
</svg>
