<svg width="350" height="48" viewBox="0 0 350 48" fill="none" xmlns="http://www.w3.org/2000/svg">
<rect width="350" height="48" rx="24" fill="#1ED760"/>
<g clip-path="url(#clip0_143_602)">
<path d="M94 12C87.3726 12 82 17.3727 82 24C82 30.6278 87.3727 36 94 36C100.628 36 106 30.6278 106 24C106 17.3732 100.628 12.0007 93.9998 12.0007L94 12ZM99.503 29.3076C99.2881 29.6601 98.8266 29.7718 98.4741 29.5554C95.6567 27.8345 92.1099 27.4447 87.9329 28.399C87.7394 28.443 87.5365 28.4085 87.3685 28.3028C87.2006 28.1972 87.0815 28.0293 87.0374 27.8359C87.0154 27.7401 87.0125 27.641 87.0289 27.5441C87.0453 27.4473 87.0806 27.3546 87.1329 27.2714C87.1851 27.1882 87.2532 27.1161 87.3334 27.0593C87.4135 27.0025 87.5041 26.9621 87.5999 26.9403C92.1711 25.8959 96.092 26.3455 99.2552 28.2787C99.6077 28.495 99.7194 28.9551 99.503 29.3076ZM100.972 26.0401C100.701 26.4803 100.125 26.6193 99.685 26.3484C96.4594 24.3658 91.5425 23.7916 87.7274 24.9497C87.2326 25.0991 86.71 24.8203 86.5598 24.3263C86.4107 23.8315 86.6897 23.3099 87.1837 23.1595C91.5417 21.8371 96.9595 22.4777 100.664 24.7539C101.104 25.0249 101.243 25.6008 100.972 26.0401ZM101.098 22.6376C97.2303 20.3404 90.8494 20.1291 87.1569 21.2499C86.5639 21.4298 85.9368 21.095 85.7572 20.502C85.5775 19.9088 85.9119 19.2821 86.5053 19.1018C90.7441 17.815 97.7907 18.0638 102.243 20.7071C102.778 21.0236 102.953 21.7125 102.636 22.2451C102.321 22.7785 101.63 22.9543 101.098 22.6376H101.098Z" fill="black"/>
</g>
<path d="M129.473 25.8164C129.402 26.6543 129.165 27.4043 128.761 28.0664C128.362 28.7227 127.803 29.2383 127.082 29.6133C126.361 29.9883 125.479 30.1758 124.437 30.1758C123.382 30.1758 122.465 29.9297 121.686 29.4375C120.912 28.9395 120.314 28.2363 119.893 27.3281C119.477 26.4199 119.269 25.3477 119.269 24.1113V23.1006C119.269 21.8584 119.482 20.7861 119.91 19.8838C120.338 18.9756 120.944 18.2725 121.729 17.7744C122.521 17.2764 123.452 17.0273 124.524 17.0273C125.55 17.0273 126.414 17.2178 127.117 17.5986C127.826 17.9736 128.374 18.4951 128.761 19.1631C129.153 19.8252 129.391 20.5869 129.473 21.4482H127.214C127.126 20.6338 126.883 20.001 126.484 19.5498C126.092 19.0986 125.438 18.873 124.524 18.873C123.862 18.873 123.312 19.0371 122.872 19.3652C122.438 19.6875 122.11 20.1621 121.888 20.7891C121.665 21.4102 121.554 22.1748 121.554 23.083V24.1113C121.554 24.9785 121.653 25.7285 121.853 26.3613C122.052 26.9883 122.362 27.4746 122.784 27.8203C123.206 28.1602 123.757 28.3301 124.437 28.3301C125.058 28.3301 125.559 28.2334 125.939 28.04C126.326 27.8467 126.619 27.5654 126.818 27.1963C127.018 26.8213 127.146 26.3613 127.205 25.8164H129.473ZM130.826 25.1572C130.826 24.2314 131.002 23.4053 131.354 22.6787C131.705 21.9521 132.209 21.3779 132.865 20.9561C133.527 20.5283 134.321 20.3145 135.247 20.3145C136.185 20.3145 136.984 20.5283 137.646 20.9561C138.309 21.3779 138.812 21.9521 139.158 22.6787C139.51 23.4053 139.686 24.2314 139.686 25.1572V25.3418C139.686 26.2617 139.51 27.0879 139.158 27.8203C138.812 28.5469 138.309 29.1211 137.646 29.543C136.99 29.9648 136.196 30.1758 135.265 30.1758C134.333 30.1758 133.536 29.9648 132.874 29.543C132.212 29.1211 131.705 28.5469 131.354 27.8203C131.002 27.0879 130.826 26.2617 130.826 25.3418V25.1572ZM133.006 25.3418C133.006 25.9043 133.085 26.4199 133.243 26.8887C133.401 27.3516 133.645 27.7236 133.973 28.0049C134.307 28.2861 134.737 28.4268 135.265 28.4268C135.786 28.4268 136.211 28.2861 136.539 28.0049C136.873 27.7236 137.116 27.3516 137.269 26.8887C137.427 26.4199 137.506 25.9043 137.506 25.3418V25.1572C137.506 24.6006 137.427 24.0879 137.269 23.6191C137.116 23.1504 136.873 22.7754 136.539 22.4941C136.205 22.207 135.774 22.0635 135.247 22.0635C134.726 22.0635 134.298 22.207 133.964 22.4941C133.636 22.7754 133.393 23.1504 133.234 23.6191C133.082 24.0879 133.006 24.6006 133.006 25.1572V25.3418ZM143.614 30H141.435V20.4902H143.482L143.614 22.5205V30ZM142.524 24.9111C142.53 23.9912 142.691 23.1885 143.008 22.5029C143.324 21.8115 143.767 21.2754 144.335 20.8945C144.903 20.5078 145.565 20.3145 146.321 20.3145C146.937 20.3145 147.47 20.4316 147.921 20.666C148.372 20.8945 148.724 21.2695 148.976 21.791C149.228 22.3066 149.354 23.001 149.354 23.874V30H147.165V23.8564C147.165 23.417 147.101 23.0684 146.972 22.8105C146.849 22.5527 146.661 22.3711 146.409 22.2656C146.163 22.1543 145.861 22.0986 145.504 22.0986C145.141 22.0986 144.818 22.1719 144.537 22.3184C144.262 22.459 144.024 22.6582 143.825 22.916C143.632 23.1738 143.482 23.4727 143.377 23.8125C143.277 24.1523 143.228 24.5156 143.228 24.9023L142.524 24.9111ZM153.651 30H151.472V20.4902H153.52L153.651 22.5205V30ZM152.562 24.9111C152.567 23.9912 152.729 23.1885 153.045 22.5029C153.361 21.8115 153.804 21.2754 154.372 20.8945C154.94 20.5078 155.603 20.3145 156.358 20.3145C156.974 20.3145 157.507 20.4316 157.958 20.666C158.409 20.8945 158.761 21.2695 159.013 21.791C159.265 22.3066 159.391 23.001 159.391 23.874V30H157.202V23.8564C157.202 23.417 157.138 23.0684 157.009 22.8105C156.886 22.5527 156.698 22.3711 156.446 22.2656C156.2 22.1543 155.898 22.0986 155.541 22.0986C155.178 22.0986 154.855 22.1719 154.574 22.3184C154.299 22.459 154.062 22.6582 153.862 22.916C153.669 23.1738 153.52 23.4727 153.414 23.8125C153.314 24.1523 153.265 24.5156 153.265 24.9023L152.562 24.9111ZM165.745 30.1758C164.802 30.1758 163.987 29.9736 163.302 29.5693C162.616 29.1592 162.089 28.6084 161.72 27.917C161.351 27.2197 161.166 26.4404 161.166 25.5791V25.2188C161.166 24.2285 161.354 23.3672 161.729 22.6348C162.104 21.8965 162.616 21.3252 163.267 20.9209C163.923 20.5166 164.664 20.3145 165.49 20.3145C166.404 20.3145 167.163 20.5137 167.767 20.9121C168.37 21.3047 168.821 21.8525 169.12 22.5557C169.419 23.2529 169.568 24.0615 169.568 24.9814V25.9219H162.212V24.3486H167.415V24.1816C167.403 23.8125 167.333 23.4668 167.204 23.1445C167.075 22.8223 166.87 22.5615 166.589 22.3623C166.313 22.1631 165.944 22.0635 165.481 22.0635C165.019 22.0635 164.629 22.1953 164.312 22.459C163.996 22.7168 163.756 23.083 163.592 23.5576C163.428 24.0264 163.346 24.5801 163.346 25.2188V25.5791C163.346 26.1182 163.445 26.6016 163.645 27.0293C163.844 27.457 164.134 27.7969 164.515 28.0488C164.896 28.2949 165.35 28.418 165.877 28.418C166.387 28.418 166.838 28.3184 167.23 28.1191C167.629 27.9199 167.972 27.6328 168.259 27.2578L169.401 28.4004C169.103 28.8516 168.651 29.2617 168.048 29.6309C167.45 29.9941 166.683 30.1758 165.745 30.1758ZM175.105 28.4268C175.445 28.4268 175.753 28.3594 176.028 28.2246C176.304 28.084 176.523 27.8936 176.688 27.6533C176.852 27.4131 176.942 27.1377 176.96 26.8271H179.017C178.999 27.4541 178.814 28.0195 178.463 28.5234C178.111 29.0273 177.646 29.4287 177.065 29.7275C176.485 30.0264 175.838 30.1758 175.123 30.1758C174.156 30.1758 173.351 29.9619 172.706 29.5342C172.067 29.1006 171.59 28.5234 171.273 27.8027C170.957 27.0762 170.799 26.2734 170.799 25.3945V25.0957C170.799 24.2168 170.957 23.417 171.273 22.6963C171.59 21.9697 172.067 21.3926 172.706 20.9648C173.351 20.5312 174.156 20.3145 175.123 20.3145C175.891 20.3145 176.562 20.4668 177.136 20.7715C177.716 21.0703 178.17 21.4893 178.498 22.0283C178.826 22.5674 178.999 23.1973 179.017 23.918H176.96C176.942 23.5781 176.857 23.2676 176.705 22.9863C176.559 22.7051 176.348 22.4824 176.072 22.3184C175.803 22.1484 175.478 22.0635 175.097 22.0635C174.534 22.0635 174.098 22.21 173.787 22.5029C173.482 22.7959 173.271 23.1738 173.154 23.6367C173.037 24.0996 172.979 24.5859 172.979 25.0957V25.3945C172.979 25.9102 173.034 26.3994 173.146 26.8623C173.263 27.3252 173.477 27.7031 173.787 27.9961C174.098 28.2832 174.537 28.4268 175.105 28.4268ZM185.028 22.0986H179.632V20.4902H185.028V22.0986ZM183.341 18.1611V27.3193C183.341 27.6123 183.382 27.835 183.464 27.9873C183.546 28.1338 183.663 28.2334 183.815 28.2861C183.968 28.3389 184.144 28.3652 184.343 28.3652C184.489 28.3652 184.63 28.3564 184.765 28.3389C184.899 28.3213 185.008 28.3037 185.09 28.2861V29.9648C184.914 30.0234 184.709 30.0732 184.475 30.1143C184.246 30.1553 183.977 30.1758 183.666 30.1758C183.18 30.1758 182.746 30.0879 182.365 29.9121C181.99 29.7363 181.694 29.4521 181.478 29.0596C181.267 28.6611 181.161 28.1338 181.161 27.4775V18.1611H183.341ZM195.522 22.0986H190.126V20.4902H195.522V22.0986ZM193.835 18.1611V27.3193C193.835 27.6123 193.876 27.835 193.958 27.9873C194.04 28.1338 194.157 28.2334 194.31 28.2861C194.462 28.3389 194.638 28.3652 194.837 28.3652C194.983 28.3652 195.124 28.3564 195.259 28.3389C195.394 28.3213 195.502 28.3037 195.584 28.2861V29.9648C195.408 30.0234 195.203 30.0732 194.969 30.1143C194.74 30.1553 194.471 30.1758 194.16 30.1758C193.674 30.1758 193.24 30.0879 192.859 29.9121C192.484 29.7363 192.188 29.4521 191.972 29.0596C191.761 28.6611 191.655 28.1338 191.655 27.4775V18.1611H193.835ZM196.498 25.1572C196.498 24.2314 196.674 23.4053 197.025 22.6787C197.377 21.9521 197.881 21.3779 198.537 20.9561C199.199 20.5283 199.993 20.3145 200.919 20.3145C201.856 20.3145 202.656 20.5283 203.318 20.9561C203.98 21.3779 204.484 21.9521 204.83 22.6787C205.182 23.4053 205.357 24.2314 205.357 25.1572V25.3418C205.357 26.2617 205.182 27.0879 204.83 27.8203C204.484 28.5469 203.98 29.1211 203.318 29.543C202.662 29.9648 201.868 30.1758 200.937 30.1758C200.005 30.1758 199.208 29.9648 198.546 29.543C197.884 29.1211 197.377 28.5469 197.025 27.8203C196.674 27.0879 196.498 26.2617 196.498 25.3418V25.1572ZM198.678 25.3418C198.678 25.9043 198.757 26.4199 198.915 26.8887C199.073 27.3516 199.316 27.7236 199.645 28.0049C199.979 28.2861 200.409 28.4268 200.937 28.4268C201.458 28.4268 201.883 28.2861 202.211 28.0049C202.545 27.7236 202.788 27.3516 202.94 26.8887C203.099 26.4199 203.178 25.9043 203.178 25.3418V25.1572C203.178 24.6006 203.099 24.0879 202.94 23.6191C202.788 23.1504 202.545 22.7754 202.211 22.4941C201.877 22.207 201.446 22.0635 200.919 22.0635C200.397 22.0635 199.97 22.207 199.636 22.4941C199.308 22.7754 199.064 23.1504 198.906 23.6191C198.754 24.0879 198.678 24.6006 198.678 25.1572V25.3418ZM218.523 26.6953C218.523 26.3496 218.45 26.0566 218.304 25.8164C218.163 25.5703 217.896 25.3447 217.504 25.1396C217.111 24.9287 216.546 24.709 215.808 24.4805C215.204 24.2988 214.645 24.0908 214.129 23.8564C213.619 23.6221 213.174 23.3525 212.793 23.0479C212.412 22.7373 212.113 22.3799 211.896 21.9756C211.686 21.5654 211.58 21.0938 211.58 20.5605C211.58 19.8633 211.773 19.251 212.16 18.7236C212.547 18.1904 213.083 17.7744 213.769 17.4756C214.454 17.1768 215.248 17.0273 216.15 17.0273C217.111 17.0273 217.938 17.2031 218.629 17.5547C219.32 17.9004 219.851 18.3691 220.22 18.9609C220.595 19.5527 220.782 20.2119 220.782 20.9385H218.515C218.515 20.5342 218.427 20.1738 218.251 19.8574C218.081 19.5352 217.82 19.2861 217.469 19.1104C217.117 18.9287 216.669 18.8379 216.124 18.8379C215.614 18.8379 215.189 18.9141 214.85 19.0664C214.51 19.2188 214.258 19.4238 214.094 19.6816C213.93 19.9395 213.848 20.2324 213.848 20.5605C213.848 20.8711 213.947 21.1465 214.146 21.3867C214.346 21.627 214.647 21.8467 215.052 22.0459C215.456 22.2393 215.96 22.4268 216.563 22.6084C217.513 22.8838 218.301 23.2061 218.928 23.5752C219.555 23.9443 220.021 24.3809 220.325 24.8848C220.636 25.3887 220.791 25.9863 220.791 26.6777C220.791 27.3984 220.604 28.0225 220.229 28.5498C219.854 29.0713 219.323 29.4727 218.638 29.7539C217.952 30.0352 217.146 30.1758 216.221 30.1758C215.605 30.1758 214.999 30.0938 214.401 29.9297C213.804 29.7598 213.262 29.5078 212.775 29.1738C212.295 28.834 211.908 28.4092 211.615 27.8994C211.328 27.3896 211.185 26.7891 211.185 26.0977H213.452C213.452 26.5078 213.522 26.8564 213.663 27.1436C213.804 27.4307 214 27.668 214.252 27.8555C214.504 28.0371 214.797 28.1689 215.131 28.251C215.471 28.333 215.834 28.374 216.221 28.374C216.73 28.374 217.155 28.3037 217.495 28.1631C217.835 28.0166 218.09 27.8174 218.26 27.5654C218.436 27.3135 218.523 27.0234 218.523 26.6953ZM224.711 33.6562H222.531V20.4902H224.544L224.711 22.3184V33.6562ZM230.881 25.333C230.881 26.2588 230.737 27.0879 230.45 27.8203C230.169 28.5469 229.753 29.1211 229.202 29.543C228.657 29.9648 227.989 30.1758 227.198 30.1758C226.401 30.1758 225.739 29.9824 225.212 29.5957C224.69 29.2031 224.283 28.6641 223.99 27.9785C223.697 27.293 223.495 26.5107 223.384 25.6318V25.0078C223.495 24.0703 223.697 23.2529 223.99 22.5557C224.283 21.8525 224.69 21.3047 225.212 20.9121C225.733 20.5137 226.387 20.3145 227.172 20.3145C227.975 20.3145 228.651 20.5166 229.202 20.9209C229.753 21.3252 230.169 21.8906 230.45 22.6172C230.737 23.3438 230.881 24.1875 230.881 25.1484V25.333ZM228.701 25.1484C228.701 24.5801 228.628 24.0645 228.481 23.6016C228.341 23.1387 228.112 22.7725 227.796 22.5029C227.485 22.2334 227.078 22.0986 226.574 22.0986C226.211 22.0986 225.897 22.1602 225.634 22.2832C225.37 22.4004 225.147 22.5674 224.966 22.7842C224.79 23.001 224.652 23.2588 224.553 23.5576C224.453 23.8506 224.383 24.1729 224.342 24.5244V26.1152C224.412 26.5371 224.529 26.9238 224.693 27.2754C224.857 27.627 225.092 27.9082 225.396 28.1191C225.707 28.3242 226.105 28.4268 226.592 28.4268C227.096 28.4268 227.503 28.2861 227.813 28.0049C228.124 27.7178 228.35 27.3428 228.49 26.8799C228.631 26.4111 228.701 25.8955 228.701 25.333V25.1484ZM232.252 25.1572C232.252 24.2314 232.428 23.4053 232.779 22.6787C233.131 21.9521 233.635 21.3779 234.291 20.9561C234.953 20.5283 235.747 20.3145 236.673 20.3145C237.61 20.3145 238.41 20.5283 239.072 20.9561C239.734 21.3779 240.238 21.9521 240.584 22.6787C240.936 23.4053 241.111 24.2314 241.111 25.1572V25.3418C241.111 26.2617 240.936 27.0879 240.584 27.8203C240.238 28.5469 239.734 29.1211 239.072 29.543C238.416 29.9648 237.622 30.1758 236.69 30.1758C235.759 30.1758 234.962 29.9648 234.3 29.543C233.638 29.1211 233.131 28.5469 232.779 27.8203C232.428 27.0879 232.252 26.2617 232.252 25.3418V25.1572ZM234.432 25.3418C234.432 25.9043 234.511 26.4199 234.669 26.8887C234.827 27.3516 235.07 27.7236 235.398 28.0049C235.732 28.2861 236.163 28.4268 236.69 28.4268C237.212 28.4268 237.637 28.2861 237.965 28.0049C238.299 27.7236 238.542 27.3516 238.694 26.8887C238.853 26.4199 238.932 25.9043 238.932 25.3418V25.1572C238.932 24.6006 238.853 24.0879 238.694 23.6191C238.542 23.1504 238.299 22.7754 237.965 22.4941C237.631 22.207 237.2 22.0635 236.673 22.0635C236.151 22.0635 235.724 22.207 235.39 22.4941C235.062 22.7754 234.818 23.1504 234.66 23.6191C234.508 24.0879 234.432 24.6006 234.432 25.1572V25.3418ZM247.255 22.0986H241.858V20.4902H247.255V22.0986ZM245.567 18.1611V27.3193C245.567 27.6123 245.608 27.835 245.69 27.9873C245.772 28.1338 245.89 28.2334 246.042 28.2861C246.194 28.3389 246.37 28.3652 246.569 28.3652C246.716 28.3652 246.856 28.3564 246.991 28.3389C247.126 28.3213 247.234 28.3037 247.316 28.2861V29.9648C247.141 30.0234 246.936 30.0732 246.701 30.1143C246.473 30.1553 246.203 30.1758 245.893 30.1758C245.406 30.1758 244.973 30.0879 244.592 29.9121C244.217 29.7363 243.921 29.4521 243.704 29.0596C243.493 28.6611 243.388 28.1338 243.388 27.4775V18.1611H245.567ZM251.184 30H249.004V20.4902H251.184V30ZM248.863 18.0029C248.863 17.6689 248.972 17.3936 249.188 17.1768C249.405 16.9541 249.707 16.8428 250.094 16.8428C250.48 16.8428 250.785 16.9541 251.008 17.1768C251.23 17.3936 251.342 17.6689 251.342 18.0029C251.342 18.3311 251.23 18.6064 251.008 18.8291C250.785 19.0459 250.48 19.1543 250.094 19.1543C249.707 19.1543 249.405 19.0459 249.188 18.8291C248.972 18.6064 248.863 18.3311 248.863 18.0029ZM254.225 30V19.585C254.225 18.5303 254.523 17.7217 255.121 17.1592C255.719 16.5967 256.536 16.3154 257.573 16.3154C257.784 16.3154 257.992 16.3301 258.197 16.3594C258.402 16.3887 258.602 16.4268 258.795 16.4736L258.742 18.1787C258.631 18.1553 258.505 18.1377 258.364 18.126C258.224 18.1143 258.077 18.1084 257.925 18.1084C257.444 18.1084 257.069 18.2373 256.8 18.4951C256.536 18.7471 256.404 19.1104 256.404 19.585V30H254.225ZM258.347 22.0986H252.774V20.4902H258.347V22.0986ZM265.176 20.4902H267.505L263.699 31.4414C263.611 31.6816 263.497 31.9395 263.356 32.2148C263.216 32.4902 263.031 32.751 262.803 32.9971C262.58 33.2432 262.299 33.4453 261.959 33.6035C261.625 33.7617 261.221 33.8408 260.746 33.8408C260.617 33.8408 260.491 33.832 260.368 33.8145C260.251 33.8027 260.137 33.7852 260.025 33.7617C259.914 33.7383 259.806 33.7119 259.7 33.6826V32.0039C259.759 32.0098 259.829 32.0156 259.911 32.0215C259.993 32.0273 260.061 32.0303 260.113 32.0303C260.635 32.0303 261.03 31.9365 261.3 31.749C261.569 31.5615 261.777 31.2422 261.924 30.791L262.618 28.9541L265.176 20.4902ZM263.444 27.5303L263.831 29.8857L262.319 30.2285L258.883 20.4902H261.238L263.444 27.5303Z" fill="black"/>
<defs>
<clipPath id="clip0_143_602">
<rect width="24" height="24" fill="white" transform="translate(82 12)"/>
</clipPath>
</defs>
</svg>
