<svg width="35" height="25" viewBox="0 0 35 25" fill="none" xmlns="http://www.w3.org/2000/svg">
<g clip-path="url(#clip0_45_783)">
<path d="M33.3795 3.87431C33.1837 3.15079 32.8018 2.49117 32.2718 1.96115C31.7418 1.43113 31.0822 1.0492 30.3587 0.853381C27.7099 0.130981 17.0494 0.130981 17.0494 0.130981C17.0494 0.130981 6.38829 0.152848 3.73949 0.875248C3.01596 1.07107 2.35635 1.45303 1.82635 1.98308C1.29635 2.51312 0.914455 3.17276 0.718692 3.89631C-0.0825077 8.60271 -0.393308 15.7742 0.740692 20.2923C0.936475 21.0158 1.31838 21.6755 1.84838 22.2055C2.37838 22.7355 3.03798 23.1174 3.76149 23.3132C6.41029 24.0356 17.0711 24.0356 17.0711 24.0356C17.0711 24.0356 27.7318 24.0356 30.3804 23.3132C31.104 23.1175 31.7636 22.7355 32.2936 22.2055C32.8236 21.6755 33.2056 21.0159 33.4014 20.2923C34.2464 15.5792 34.5068 8.41218 33.3795 3.87431Z" fill="#FF0000"/>
<path d="M13.6562 17.2057L22.5 12.0833L13.6562 6.96088V17.2057Z" fill="white"/>
</g>
<defs>
<clipPath id="clip0_45_783">
<rect width="34.1333" height="24" fill="white" transform="translate(0 0.130981)"/>
</clipPath>
</defs>
</svg>
