<svg width="24" height="24" viewBox="0 0 24 24" fill="none" xmlns="http://www.w3.org/2000/svg">
<path d="M21.9971 18.23C21.9971 18.957 21.5921 20.357 20.6821 21.126C20.5001 21.266 20.3181 21.187 20.3981 20.983C20.6631 20.335 21.2691 18.836 20.9851 18.491C20.7841 18.229 19.9541 18.249 19.2461 18.309C18.9231 18.35 18.6391 18.369 18.4191 18.414C18.2151 18.43 18.1741 18.251 18.3781 18.111C18.6437 17.9234 18.9373 17.779 19.2481 17.683C20.3981 17.339 21.7271 17.546 21.9181 17.766C21.9541 17.808 21.9971 17.927 21.9971 18.23ZM20.0751 19.523C19.8113 19.7247 19.5344 19.9084 19.2461 20.073C17.1241 21.348 14.3751 22.016 11.9881 22.016C8.14506 22.016 4.70807 20.599 2.10007 18.228C1.87607 18.046 2.06107 17.782 2.32307 17.925C5.13306 19.565 8.61107 20.557 12.2111 20.557C14.4771 20.557 16.9191 20.133 19.2461 19.221C19.4091 19.16 19.5911 19.077 19.7501 19.019C20.1171 18.854 20.4401 19.261 20.0751 19.523ZM13.9051 8.493C13.9051 7.452 13.9471 6.839 13.6021 6.313C13.2961 5.88 12.7691 5.62 12.0331 5.661C11.2351 5.705 10.3781 6.228 10.1601 7.187C10.1171 7.407 9.98906 7.623 9.72306 7.67L7.28807 7.36C7.11407 7.32 6.84907 7.187 6.93607 6.839C7.45907 4.088 9.81007 3.129 12.0341 3H12.5561C13.7761 3 15.3441 3.349 16.3471 4.264C17.5641 5.4 17.4341 6.926 17.4341 8.584V12.511C17.4341 13.689 17.9121 14.211 18.3921 14.825C18.5221 15.044 18.5671 15.302 18.3481 15.48C17.7181 16.0417 17.079 16.5931 16.4311 17.134C16.2561 17.267 15.9421 17.281 15.8211 17.179C15.0511 16.534 14.8631 16.176 14.3861 15.521C13.5561 16.392 12.8591 16.873 12.0301 17.134C11.4471 17.2819 10.8475 17.3545 10.2461 17.35C8.15606 17.35 6.50107 16.047 6.50107 13.47C6.50107 11.421 7.59107 10.028 9.20107 9.369C10.8111 8.709 13.1511 8.499 13.9051 8.495M13.4281 13.687C13.9481 12.815 13.9051 12.101 13.9051 10.502C13.2531 10.502 12.5991 10.547 12.0341 10.68C10.9891 10.983 10.1591 11.64 10.1591 13.035C10.1591 14.125 10.7271 14.867 11.6851 14.867C11.8171 14.867 11.9331 14.851 12.0331 14.822C12.7031 14.636 13.1211 14.3 13.4281 13.687Z" fill="#FF993A"/>
</svg>
