<svg width="45" height="46" viewBox="0 0 45 46" fill="none" xmlns="http://www.w3.org/2000/svg">
<path d="M27.1875 14C25.2516 14 23.5566 14.8325 22.5 16.2397C21.4434 14.8325 19.7484 14 17.8125 14C16.2715 14.0017 14.794 14.6147 13.7044 15.7044C12.6147 16.794 12.0017 18.2715 12 19.8125C12 26.375 21.7303 31.6869 22.1447 31.9062C22.2539 31.965 22.376 31.9958 22.5 31.9958C22.624 31.9958 22.7461 31.965 22.8553 31.9062C23.2697 31.6869 33 26.375 33 19.8125C32.9983 18.2715 32.3853 16.794 31.2956 15.7044C30.206 14.6147 28.7285 14.0017 27.1875 14ZM22.5 30.3875C20.7881 29.39 13.5 24.8459 13.5 19.8125C13.5015 18.6692 13.9563 17.5732 14.7647 16.7647C15.5732 15.9563 16.6692 15.5015 17.8125 15.5C19.6359 15.5 21.1669 16.4713 21.8062 18.0312C21.8628 18.1688 21.9589 18.2865 22.0824 18.3693C22.2059 18.4521 22.3513 18.4963 22.5 18.4963C22.6487 18.4963 22.7941 18.4521 22.9176 18.3693C23.0411 18.2865 23.1372 18.1688 23.1937 18.0312C23.8331 16.4684 25.3641 15.5 27.1875 15.5C28.3308 15.5015 29.4268 15.9563 30.2353 16.7647C31.0437 17.5732 31.4985 18.6692 31.5 19.8125C31.5 24.8384 24.21 29.3891 22.5 30.3875Z" fill="white"/>
</svg>
