<svg width="366" height="45" viewBox="0 0 366 45" fill="none" xmlns="http://www.w3.org/2000/svg">
<rect x="0.5" y="0.5" width="365" height="44" rx="11.5" fill="url(#paint0_linear_74_5)"/>
<rect x="0.5" y="0.5" width="365" height="44" rx="11.5" stroke="url(#paint1_linear_74_5)"/>
<path d="M164.766 23.7812C164.703 24.526 164.492 25.1927 164.133 25.7812C163.779 26.3646 163.281 26.8229 162.641 27.1562C162 27.4896 161.216 27.6562 160.289 27.6562C159.352 27.6562 158.536 27.4375 157.844 27C157.156 26.5573 156.625 25.9323 156.25 25.125C155.88 24.3177 155.695 23.3646 155.695 22.2656V21.3672C155.695 20.263 155.885 19.3099 156.266 18.5078C156.646 17.7005 157.185 17.0755 157.883 16.6328C158.586 16.1901 159.414 15.9688 160.367 15.9688C161.279 15.9688 162.047 16.138 162.672 16.4766C163.302 16.8099 163.789 17.2734 164.133 17.8672C164.482 18.4557 164.693 19.1328 164.766 19.8984H162.758C162.68 19.1745 162.464 18.612 162.109 18.2109C161.76 17.8099 161.18 17.6094 160.367 17.6094C159.779 17.6094 159.289 17.7552 158.898 18.0469C158.513 18.3333 158.221 18.7552 158.023 19.3125C157.826 19.8646 157.727 20.5443 157.727 21.3516V22.2656C157.727 23.0365 157.815 23.7031 157.992 24.2656C158.169 24.8229 158.445 25.2552 158.82 25.5625C159.195 25.8646 159.685 26.0156 160.289 26.0156C160.841 26.0156 161.286 25.9297 161.625 25.7578C161.969 25.5859 162.229 25.3359 162.406 25.0078C162.583 24.6745 162.698 24.2656 162.75 23.7812H164.766ZM165.969 23.1953C165.969 22.3724 166.125 21.638 166.438 20.9922C166.75 20.3464 167.198 19.8359 167.781 19.4609C168.37 19.0807 169.076 18.8906 169.898 18.8906C170.732 18.8906 171.443 19.0807 172.031 19.4609C172.62 19.8359 173.068 20.3464 173.375 20.9922C173.688 21.638 173.844 22.3724 173.844 23.1953V23.3594C173.844 24.1771 173.688 24.9115 173.375 25.5625C173.068 26.2083 172.62 26.7188 172.031 27.0938C171.448 27.4688 170.742 27.6562 169.914 27.6562C169.086 27.6562 168.378 27.4688 167.789 27.0938C167.201 26.7188 166.75 26.2083 166.438 25.5625C166.125 24.9115 165.969 24.1771 165.969 23.3594V23.1953ZM167.906 23.3594C167.906 23.8594 167.977 24.3177 168.117 24.7344C168.258 25.1458 168.474 25.4766 168.766 25.7266C169.062 25.9766 169.445 26.1016 169.914 26.1016C170.378 26.1016 170.755 25.9766 171.047 25.7266C171.344 25.4766 171.56 25.1458 171.695 24.7344C171.836 24.3177 171.906 23.8594 171.906 23.3594V23.1953C171.906 22.7005 171.836 22.2448 171.695 21.8281C171.56 21.4115 171.344 21.0781 171.047 20.8281C170.75 20.5729 170.367 20.4453 169.898 20.4453C169.435 20.4453 169.055 20.5729 168.758 20.8281C168.466 21.0781 168.25 21.4115 168.109 21.8281C167.974 22.2448 167.906 22.7005 167.906 23.1953V23.3594ZM177.336 27.5H175.398V19.0469H177.219L177.336 20.8516V27.5ZM176.367 22.9766C176.372 22.1589 176.516 21.4453 176.797 20.8359C177.078 20.2214 177.471 19.7448 177.977 19.4062C178.482 19.0625 179.07 18.8906 179.742 18.8906C180.289 18.8906 180.763 18.9948 181.164 19.2031C181.565 19.4062 181.878 19.7396 182.102 20.2031C182.326 20.6615 182.438 21.2786 182.438 22.0547V27.5H180.492V22.0391C180.492 21.6484 180.435 21.3385 180.32 21.1094C180.211 20.8802 180.044 20.7188 179.82 20.625C179.602 20.526 179.333 20.4766 179.016 20.4766C178.693 20.4766 178.406 20.5417 178.156 20.6719C177.911 20.7969 177.701 20.974 177.523 21.2031C177.352 21.4323 177.219 21.6979 177.125 22C177.036 22.3021 176.992 22.625 176.992 22.9688L176.367 22.9766ZM188.258 20.4766H183.461V19.0469H188.258V20.4766ZM186.758 16.9766V25.1172C186.758 25.3776 186.794 25.5755 186.867 25.7109C186.94 25.8411 187.044 25.9297 187.18 25.9766C187.315 26.0234 187.471 26.0469 187.648 26.0469C187.779 26.0469 187.904 26.0391 188.023 26.0234C188.143 26.0078 188.24 25.9922 188.312 25.9766V27.4688C188.156 27.5208 187.974 27.5651 187.766 27.6016C187.562 27.638 187.323 27.6562 187.047 27.6562C186.615 27.6562 186.229 27.5781 185.891 27.4219C185.557 27.2656 185.294 27.013 185.102 26.6641C184.914 26.3099 184.82 25.8411 184.82 25.2578V16.9766H186.758ZM194.43 21.7891C194.43 21.3516 194.307 21.0026 194.062 20.7422C193.823 20.4818 193.458 20.3516 192.969 20.3516C192.677 20.3516 192.422 20.4036 192.203 20.5078C191.984 20.6068 191.815 20.7422 191.695 20.9141C191.576 21.0859 191.516 21.2812 191.516 21.5H189.578C189.578 21.0469 189.721 20.6224 190.008 20.2266C190.294 19.8255 190.698 19.5026 191.219 19.2578C191.745 19.013 192.365 18.8906 193.078 18.8906C193.714 18.8906 194.279 18.9974 194.773 19.2109C195.268 19.4245 195.656 19.7474 195.938 20.1797C196.224 20.612 196.367 21.1536 196.367 21.8047V25.5312C196.367 25.9271 196.396 26.276 196.453 26.5781C196.51 26.8802 196.591 27.1432 196.695 27.3672V27.5H194.711C194.622 27.2969 194.552 27.0339 194.5 26.7109C194.453 26.388 194.43 26.0729 194.43 25.7656V21.7891ZM194.727 23.5469H193.398C192.711 23.5469 192.193 23.6745 191.844 23.9297C191.5 24.1797 191.328 24.5208 191.328 24.9531C191.328 25.2865 191.443 25.5651 191.672 25.7891C191.901 26.0078 192.224 26.1172 192.641 26.1172C193.021 26.1172 193.352 26.0417 193.633 25.8906C193.919 25.7344 194.143 25.5443 194.305 25.3203C194.466 25.0911 194.549 24.8776 194.555 24.6797L195.172 25.5469C195.109 25.7604 195.003 25.9896 194.852 26.2344C194.706 26.474 194.51 26.7031 194.266 26.9219C194.026 27.1354 193.74 27.3125 193.406 27.4531C193.078 27.5885 192.695 27.6562 192.258 27.6562C191.706 27.6562 191.214 27.5469 190.781 27.3281C190.349 27.1094 190.008 26.8099 189.758 26.4297C189.513 26.0443 189.391 25.612 189.391 25.1328C189.391 24.237 189.727 23.5495 190.398 23.0703C191.07 22.5911 192.023 22.3516 193.258 22.3516H194.711L194.727 23.5469ZM201.797 26.1016C202.099 26.1016 202.372 26.0417 202.617 25.9219C202.862 25.7969 203.057 25.6276 203.203 25.4141C203.349 25.2005 203.43 24.9557 203.445 24.6797H205.273C205.258 25.237 205.094 25.7396 204.781 26.1875C204.469 26.6354 204.055 26.9922 203.539 27.2578C203.023 27.5234 202.448 27.6562 201.812 27.6562C200.953 27.6562 200.237 27.4661 199.664 27.0859C199.096 26.7005 198.672 26.1875 198.391 25.5469C198.109 24.901 197.969 24.1875 197.969 23.4062V23.1406C197.969 22.3594 198.109 21.6484 198.391 21.0078C198.672 20.362 199.096 19.849 199.664 19.4688C200.237 19.0833 200.953 18.8906 201.812 18.8906C202.495 18.8906 203.091 19.026 203.602 19.2969C204.117 19.5625 204.521 19.9349 204.812 20.4141C205.104 20.8932 205.258 21.4531 205.273 22.0938H203.445C203.43 21.7917 203.354 21.5156 203.219 21.2656C203.089 21.0156 202.901 20.8177 202.656 20.6719C202.417 20.5208 202.128 20.4453 201.789 20.4453C201.289 20.4453 200.901 20.5755 200.625 20.8359C200.354 21.0964 200.167 21.4323 200.062 21.8438C199.958 22.2552 199.906 22.6875 199.906 23.1406V23.4062C199.906 23.8646 199.956 24.2995 200.055 24.7109C200.159 25.1224 200.349 25.4583 200.625 25.7188C200.901 25.974 201.292 26.1016 201.797 26.1016ZM210.617 20.4766H205.82V19.0469H210.617V20.4766ZM209.117 16.9766V25.1172C209.117 25.3776 209.154 25.5755 209.227 25.7109C209.299 25.8411 209.404 25.9297 209.539 25.9766C209.674 26.0234 209.831 26.0469 210.008 26.0469C210.138 26.0469 210.263 26.0391 210.383 26.0234C210.503 26.0078 210.599 25.9922 210.672 25.9766V27.4688C210.516 27.5208 210.333 27.5651 210.125 27.6016C209.922 27.638 209.682 27.6562 209.406 27.6562C208.974 27.6562 208.589 27.5781 208.25 27.4219C207.917 27.2656 207.654 27.013 207.461 26.6641C207.273 26.3099 207.18 25.8411 207.18 25.2578V16.9766H209.117Z" fill="black"/>
<defs>
<linearGradient id="paint0_linear_74_5" x1="366" y1="-30" x2="-2.27403" y2="70.6821" gradientUnits="userSpaceOnUse">
<stop stop-color="#BC66FF"/>
<stop offset="1" stop-color="#DEB5FF"/>
</linearGradient>
<linearGradient id="paint1_linear_74_5" x1="366" y1="-30" x2="-2.27403" y2="70.6821" gradientUnits="userSpaceOnUse">
<stop stop-color="#BC66FF"/>
<stop offset="1" stop-color="#DEB5FF"/>
</linearGradient>
</defs>
</svg>
