<svg width="106" height="20" viewBox="0 0 106 20" fill="none" xmlns="http://www.w3.org/2000/svg">
<path d="M3.76953 1.28125L7.8125 12.1211L11.8555 1.28125H14.1016L8.70117 15.5H6.92383L1.5332 1.28125H3.76953ZM2.63672 1.28125L3.00781 10.9395V15.5H0.498047V1.28125H2.63672ZM15.1367 1.28125V15.5H12.6172V10.9395L12.998 1.28125H15.1367ZM23.6719 4.93359H26.2598L22.0312 17.1016C21.9336 17.3685 21.8066 17.6549 21.6504 17.9609C21.4941 18.2669 21.2891 18.5566 21.0352 18.8301C20.7878 19.1035 20.4753 19.3281 20.0977 19.5039C19.7266 19.6797 19.2773 19.7676 18.75 19.7676C18.6068 19.7676 18.4668 19.7578 18.3301 19.7383C18.1999 19.7253 18.0729 19.7057 17.9492 19.6797C17.8255 19.6536 17.7051 19.6243 17.5879 19.5918V17.7266C17.653 17.7331 17.7311 17.7396 17.8223 17.7461C17.9134 17.7526 17.9883 17.7559 18.0469 17.7559C18.6263 17.7559 19.0658 17.6517 19.3652 17.4434C19.6647 17.235 19.8958 16.8802 20.0586 16.3789L20.8301 14.3379L23.6719 4.93359ZM21.748 12.7559L22.1777 15.373L20.498 15.7539L16.6797 4.93359H19.2969L21.748 12.7559ZM34.9805 19.5625H32.5586V4.93359H34.7949L34.9805 6.96484V19.5625ZM41.8359 10.3145C41.8359 11.3431 41.6764 12.2643 41.3574 13.0781C41.0449 13.8854 40.5827 14.5234 39.9707 14.9922C39.3652 15.4609 38.623 15.6953 37.7441 15.6953C36.8587 15.6953 36.123 15.4805 35.5371 15.0508C34.9577 14.6146 34.5052 14.0156 34.1797 13.2539C33.8542 12.4922 33.6296 11.623 33.5059 10.6465V9.95312C33.6296 8.91146 33.8542 8.00326 34.1797 7.22852C34.5052 6.44727 34.9577 5.83854 35.5371 5.40234C36.1165 4.95964 36.8424 4.73828 37.7148 4.73828C38.6068 4.73828 39.3587 4.96289 39.9707 5.41211C40.5827 5.86133 41.0449 6.48958 41.3574 7.29688C41.6764 8.10417 41.8359 9.04167 41.8359 10.1094V10.3145ZM39.4141 10.1094C39.4141 9.47786 39.3327 8.90495 39.1699 8.39062C39.0137 7.8763 38.7598 7.4694 38.4082 7.16992C38.0632 6.87044 37.6107 6.7207 37.0508 6.7207C36.6471 6.7207 36.2988 6.78906 36.0059 6.92578C35.7129 7.05599 35.4655 7.24154 35.2637 7.48242C35.0684 7.72331 34.9154 8.00977 34.8047 8.3418C34.694 8.66732 34.6159 9.02539 34.5703 9.41602V11.1836C34.6484 11.6523 34.7786 12.082 34.9609 12.4727C35.1432 12.8633 35.4036 13.1758 35.7422 13.4102C36.0872 13.638 36.5299 13.752 37.0703 13.752C37.6302 13.752 38.0827 13.5957 38.4277 13.2832C38.7728 12.9642 39.0234 12.5475 39.1797 12.0332C39.3359 11.5124 39.4141 10.9395 39.4141 10.3145V10.1094ZM46.3867 15.5H43.9648V0.5H46.3867V15.5ZM54.873 8.36133C54.873 7.81445 54.7201 7.37826 54.4141 7.05273C54.1146 6.72721 53.6589 6.56445 53.0469 6.56445C52.6823 6.56445 52.3633 6.62956 52.0898 6.75977C51.8164 6.88346 51.6048 7.05273 51.4551 7.26758C51.3053 7.48242 51.2305 7.72656 51.2305 8H48.8086C48.8086 7.43359 48.9876 6.90299 49.3457 6.4082C49.7038 5.9069 50.2083 5.50326 50.8594 5.19727C51.5169 4.89128 52.2917 4.73828 53.1836 4.73828C53.9779 4.73828 54.6842 4.87174 55.3027 5.13867C55.9212 5.4056 56.4062 5.80924 56.7578 6.34961C57.1159 6.88997 57.2949 7.56706 57.2949 8.38086V13.0391C57.2949 13.5339 57.3307 13.9701 57.4023 14.3477C57.474 14.7253 57.5749 15.054 57.7051 15.334V15.5H55.2246C55.1139 15.2461 55.026 14.9173 54.9609 14.5137C54.9023 14.11 54.873 13.7161 54.873 13.332V8.36133ZM55.2441 10.5586H53.584C52.7246 10.5586 52.0768 10.7181 51.6406 11.0371C51.2109 11.3496 50.9961 11.776 50.9961 12.3164C50.9961 12.7331 51.1393 13.0814 51.4258 13.3613C51.7122 13.6348 52.1159 13.7715 52.6367 13.7715C53.112 13.7715 53.5254 13.6771 53.877 13.4883C54.235 13.293 54.515 13.0553 54.7168 12.7754C54.9186 12.4889 55.0228 12.222 55.0293 11.9746L55.8008 13.0586C55.7227 13.3255 55.5892 13.612 55.4004 13.918C55.2181 14.2174 54.974 14.5039 54.668 14.7773C54.3685 15.0443 54.0104 15.2656 53.5938 15.4414C53.1836 15.6107 52.7051 15.6953 52.1582 15.6953C51.4681 15.6953 50.8529 15.5586 50.3125 15.2852C49.7721 15.0117 49.3457 14.6374 49.0332 14.1621C48.7272 13.6803 48.5742 13.14 48.5742 12.541C48.5742 11.4212 48.9941 10.5618 49.834 9.96289C50.6738 9.36393 51.8652 9.06445 53.4082 9.06445H55.2246L55.2441 10.5586ZM65.6445 4.93359H68.2324L64.0039 17.1016C63.9062 17.3685 63.7793 17.6549 63.623 17.9609C63.4668 18.2669 63.2617 18.5566 63.0078 18.8301C62.7604 19.1035 62.4479 19.3281 62.0703 19.5039C61.6992 19.6797 61.25 19.7676 60.7227 19.7676C60.5794 19.7676 60.4395 19.7578 60.3027 19.7383C60.1725 19.7253 60.0456 19.7057 59.9219 19.6797C59.7982 19.6536 59.6777 19.6243 59.5605 19.5918V17.7266C59.6257 17.7331 59.7038 17.7396 59.7949 17.7461C59.8861 17.7526 59.9609 17.7559 60.0195 17.7559C60.599 17.7559 61.0384 17.6517 61.3379 17.4434C61.6374 17.235 61.8685 16.8802 62.0312 16.3789L62.8027 14.3379L65.6445 4.93359ZM63.7207 12.7559L64.1504 15.373L62.4707 15.7539L58.6523 4.93359H61.2695L63.7207 12.7559ZM72.1289 15.5H69.707V0.5H72.1289V15.5ZM77.2656 15.5H74.8438V4.93359H77.2656V15.5ZM74.6875 2.16992C74.6875 1.79883 74.8079 1.49284 75.0488 1.25195C75.2897 1.00456 75.625 0.880859 76.0547 0.880859C76.4844 0.880859 76.8229 1.00456 77.0703 1.25195C77.3177 1.49284 77.4414 1.79883 77.4414 2.16992C77.4414 2.53451 77.3177 2.84049 77.0703 3.08789C76.8229 3.32878 76.4844 3.44922 76.0547 3.44922C75.625 3.44922 75.2897 3.32878 75.0488 3.08789C74.8079 2.84049 74.6875 2.53451 74.6875 2.16992ZM85.7227 12.6191C85.7227 12.3978 85.6641 12.196 85.5469 12.0137C85.4362 11.8314 85.2181 11.6621 84.8926 11.5059C84.5671 11.3496 84.0885 11.2064 83.457 11.0762C82.7083 10.9199 82.0475 10.7116 81.4746 10.4512C80.9082 10.1908 80.4655 9.85547 80.1465 9.44531C79.834 9.03516 79.6777 8.53385 79.6777 7.94141C79.6777 7.36849 79.8405 6.84115 80.166 6.35938C80.498 5.87109 80.9701 5.48047 81.582 5.1875C82.2005 4.88802 82.9297 4.73828 83.7695 4.73828C84.6549 4.73828 85.4167 4.88802 86.0547 5.1875C86.6927 5.48047 87.181 5.88086 87.5195 6.38867C87.8646 6.88997 88.0371 7.45964 88.0371 8.09766H85.6152C85.6152 7.68099 85.459 7.31641 85.1465 7.00391C84.8405 6.6849 84.3783 6.52539 83.7598 6.52539C83.3757 6.52539 83.0534 6.58724 82.793 6.71094C82.5391 6.83464 82.347 6.99414 82.2168 7.18945C82.0931 7.38477 82.0312 7.59961 82.0312 7.83398C82.0312 8.06185 82.0931 8.26042 82.2168 8.42969C82.347 8.59896 82.5651 8.7487 82.8711 8.87891C83.1836 9.00911 83.6198 9.13281 84.1797 9.25C84.987 9.41927 85.6836 9.63411 86.2695 9.89453C86.8555 10.1484 87.3047 10.487 87.6172 10.9102C87.9362 11.3268 88.0957 11.8574 88.0957 12.502C88.0957 13.1204 87.9167 13.6706 87.5586 14.1523C87.207 14.6341 86.709 15.0117 86.0645 15.2852C85.4264 15.5586 84.6712 15.6953 83.7988 15.6953C82.8288 15.6953 82.0117 15.5228 81.3477 15.1777C80.6836 14.8327 80.179 14.3932 79.834 13.8594C79.4954 13.319 79.3262 12.7591 79.3262 12.1797H81.6602C81.6862 12.5964 81.8034 12.9316 82.0117 13.1855C82.2266 13.4395 82.4935 13.625 82.8125 13.7422C83.138 13.8529 83.4766 13.9082 83.8281 13.9082C84.2448 13.9082 84.5898 13.8529 84.8633 13.7422C85.1432 13.6315 85.3548 13.4818 85.498 13.293C85.6478 13.0977 85.7227 12.873 85.7227 12.6191ZM95.0293 6.7207H89.0332V4.93359H95.0293V6.7207ZM93.1543 2.3457V12.5215C93.1543 12.847 93.1999 13.0944 93.291 13.2637C93.3822 13.4264 93.5124 13.5371 93.6816 13.5957C93.8509 13.6543 94.0462 13.6836 94.2676 13.6836C94.4303 13.6836 94.5866 13.6738 94.7363 13.6543C94.8861 13.6348 95.0065 13.6152 95.0977 13.5957V15.4609C94.9023 15.526 94.6745 15.5814 94.4141 15.627C94.1602 15.6725 93.8607 15.6953 93.5156 15.6953C92.9753 15.6953 92.4935 15.5977 92.0703 15.4023C91.6536 15.207 91.3249 14.8913 91.084 14.4551C90.8496 14.0124 90.7324 13.4264 90.7324 12.6973V2.3457H93.1543ZM102.715 12.6191C102.715 12.3978 102.656 12.196 102.539 12.0137C102.428 11.8314 102.21 11.6621 101.885 11.5059C101.559 11.3496 101.081 11.2064 100.449 11.0762C99.7005 10.9199 99.0397 10.7116 98.4668 10.4512C97.9004 10.1908 97.4577 9.85547 97.1387 9.44531C96.8262 9.03516 96.6699 8.53385 96.6699 7.94141C96.6699 7.36849 96.8327 6.84115 97.1582 6.35938C97.4902 5.87109 97.9622 5.48047 98.5742 5.1875C99.1927 4.88802 99.9219 4.73828 100.762 4.73828C101.647 4.73828 102.409 4.88802 103.047 5.1875C103.685 5.48047 104.173 5.88086 104.512 6.38867C104.857 6.88997 105.029 7.45964 105.029 8.09766H102.607C102.607 7.68099 102.451 7.31641 102.139 7.00391C101.833 6.6849 101.37 6.52539 100.752 6.52539C100.368 6.52539 100.046 6.58724 99.7852 6.71094C99.5312 6.83464 99.3392 6.99414 99.209 7.18945C99.0853 7.38477 99.0234 7.59961 99.0234 7.83398C99.0234 8.06185 99.0853 8.26042 99.209 8.42969C99.3392 8.59896 99.5573 8.7487 99.8633 8.87891C100.176 9.00911 100.612 9.13281 101.172 9.25C101.979 9.41927 102.676 9.63411 103.262 9.89453C103.848 10.1484 104.297 10.487 104.609 10.9102C104.928 11.3268 105.088 11.8574 105.088 12.502C105.088 13.1204 104.909 13.6706 104.551 14.1523C104.199 14.6341 103.701 15.0117 103.057 15.2852C102.419 15.5586 101.663 15.6953 100.791 15.6953C99.821 15.6953 99.0039 15.5228 98.3398 15.1777C97.6758 14.8327 97.1712 14.3932 96.8262 13.8594C96.4876 13.319 96.3184 12.7591 96.3184 12.1797H98.6523C98.6784 12.5964 98.7956 12.9316 99.0039 13.1855C99.2188 13.4395 99.4857 13.625 99.8047 13.7422C100.13 13.8529 100.469 13.9082 100.82 13.9082C101.237 13.9082 101.582 13.8529 101.855 13.7422C102.135 13.6315 102.347 13.4818 102.49 13.293C102.64 13.0977 102.715 12.873 102.715 12.6191Z" fill="white"/>
</svg>
