<svg width="382" height="45" viewBox="0 0 382 45" fill="none" xmlns="http://www.w3.org/2000/svg">
<rect width="382" height="45" rx="12" fill="url(#paint0_linear_42_2021)"/>
<rect x="0.5" y="0.5" width="381" height="44" rx="11.5" stroke="#BC66FF" stroke-opacity="0.24"/>
<path d="M177.203 23.7812C177.141 24.526 176.93 25.1927 176.57 25.7812C176.216 26.3646 175.719 26.8229 175.078 27.1562C174.438 27.4896 173.654 27.6562 172.727 27.6562C171.789 27.6562 170.974 27.4375 170.281 27C169.594 26.5573 169.062 25.9323 168.688 25.125C168.318 24.3177 168.133 23.3646 168.133 22.2656V21.3672C168.133 20.263 168.323 19.3099 168.703 18.5078C169.083 17.7005 169.622 17.0755 170.32 16.6328C171.023 16.1901 171.852 15.9688 172.805 15.9688C173.716 15.9688 174.484 16.138 175.109 16.4766C175.74 16.8099 176.227 17.2734 176.57 17.8672C176.919 18.4557 177.13 19.1328 177.203 19.8984H175.195C175.117 19.1745 174.901 18.612 174.547 18.2109C174.198 17.8099 173.617 17.6094 172.805 17.6094C172.216 17.6094 171.727 17.7552 171.336 18.0469C170.951 18.3333 170.659 18.7552 170.461 19.3125C170.263 19.8646 170.164 20.5443 170.164 21.3516V22.2656C170.164 23.0365 170.253 23.7031 170.43 24.2656C170.607 24.8229 170.883 25.2552 171.258 25.5625C171.633 25.8646 172.122 26.0156 172.727 26.0156C173.279 26.0156 173.724 25.9297 174.062 25.7578C174.406 25.5859 174.667 25.3359 174.844 25.0078C175.021 24.6745 175.135 24.2656 175.188 23.7812H177.203ZM180.703 27.5H178.766V19.0469H180.609L180.703 20.7031V27.5ZM183.25 20.8281C183.13 20.8073 183.003 20.7917 182.867 20.7812C182.737 20.7708 182.607 20.7656 182.477 20.7656C182.049 20.7656 181.693 20.8438 181.406 21C181.125 21.151 180.911 21.3698 180.766 21.6562C180.62 21.9375 180.534 22.2708 180.508 22.6562L180.062 22.6641C180.062 21.9505 180.156 21.3099 180.344 20.7422C180.531 20.1745 180.812 19.724 181.188 19.3906C181.562 19.0573 182.031 18.8906 182.594 18.8906C182.703 18.8906 182.826 18.901 182.961 18.9219C183.096 18.9427 183.198 18.9661 183.266 18.9922L183.25 20.8281ZM188.18 27.6562C187.341 27.6562 186.617 27.4766 186.008 27.1172C185.398 26.7526 184.93 26.263 184.602 25.6484C184.273 25.0286 184.109 24.3359 184.109 23.5703V23.25C184.109 22.3698 184.276 21.6042 184.609 20.9531C184.943 20.2969 185.398 19.7891 185.977 19.4297C186.56 19.0703 187.219 18.8906 187.953 18.8906C188.766 18.8906 189.44 19.0677 189.977 19.4219C190.513 19.7708 190.914 20.2578 191.18 20.8828C191.445 21.5026 191.578 22.2214 191.578 23.0391V23.875H185.039V22.4766H189.664V22.3281C189.654 22 189.591 21.6927 189.477 21.4062C189.362 21.1198 189.18 20.888 188.93 20.7109C188.685 20.5339 188.357 20.4453 187.945 20.4453C187.534 20.4453 187.188 20.5625 186.906 20.7969C186.625 21.026 186.411 21.3516 186.266 21.7734C186.12 22.1901 186.047 22.6823 186.047 23.25V23.5703C186.047 24.0495 186.135 24.4792 186.312 24.8594C186.49 25.2396 186.747 25.5417 187.086 25.7656C187.424 25.9844 187.828 26.0938 188.297 26.0938C188.75 26.0938 189.151 26.0052 189.5 25.8281C189.854 25.651 190.159 25.3958 190.414 25.0625L191.43 26.0781C191.164 26.4792 190.763 26.8438 190.227 27.1719C189.695 27.4948 189.013 27.6562 188.18 27.6562ZM197.773 21.7891C197.773 21.3516 197.651 21.0026 197.406 20.7422C197.167 20.4818 196.802 20.3516 196.312 20.3516C196.021 20.3516 195.766 20.4036 195.547 20.5078C195.328 20.6068 195.159 20.7422 195.039 20.9141C194.919 21.0859 194.859 21.2812 194.859 21.5H192.922C192.922 21.0469 193.065 20.6224 193.352 20.2266C193.638 19.8255 194.042 19.5026 194.562 19.2578C195.089 19.013 195.708 18.8906 196.422 18.8906C197.057 18.8906 197.622 18.9974 198.117 19.2109C198.612 19.4245 199 19.7474 199.281 20.1797C199.568 20.612 199.711 21.1536 199.711 21.8047V25.5312C199.711 25.9271 199.74 26.276 199.797 26.5781C199.854 26.8802 199.935 27.1432 200.039 27.3672V27.5H198.055C197.966 27.2969 197.896 27.0339 197.844 26.7109C197.797 26.388 197.773 26.0729 197.773 25.7656V21.7891ZM198.07 23.5469H196.742C196.055 23.5469 195.536 23.6745 195.188 23.9297C194.844 24.1797 194.672 24.5208 194.672 24.9531C194.672 25.2865 194.786 25.5651 195.016 25.7891C195.245 26.0078 195.568 26.1172 195.984 26.1172C196.365 26.1172 196.695 26.0417 196.977 25.8906C197.263 25.7344 197.487 25.5443 197.648 25.3203C197.81 25.0911 197.893 24.8776 197.898 24.6797L198.516 25.5469C198.453 25.7604 198.346 25.9896 198.195 26.2344C198.049 26.474 197.854 26.7031 197.609 26.9219C197.37 27.1354 197.083 27.3125 196.75 27.4531C196.422 27.5885 196.039 27.6562 195.602 27.6562C195.049 27.6562 194.557 27.5469 194.125 27.3281C193.693 27.1094 193.352 26.8099 193.102 26.4297C192.857 26.0443 192.734 25.612 192.734 25.1328C192.734 24.237 193.07 23.5495 193.742 23.0703C194.414 22.5911 195.367 22.3516 196.602 22.3516H198.055L198.07 23.5469ZM205.586 20.4766H200.789V19.0469H205.586V20.4766ZM204.086 16.9766V25.1172C204.086 25.3776 204.122 25.5755 204.195 25.7109C204.268 25.8411 204.372 25.9297 204.508 25.9766C204.643 26.0234 204.799 26.0469 204.977 26.0469C205.107 26.0469 205.232 26.0391 205.352 26.0234C205.471 26.0078 205.568 25.9922 205.641 25.9766V27.4688C205.484 27.5208 205.302 27.5651 205.094 27.6016C204.891 27.638 204.651 27.6562 204.375 27.6562C203.943 27.6562 203.557 27.5781 203.219 27.4219C202.885 27.2656 202.622 27.013 202.43 26.6641C202.242 26.3099 202.148 25.8411 202.148 25.2578V16.9766H204.086ZM210.758 27.6562C209.919 27.6562 209.195 27.4766 208.586 27.1172C207.977 26.7526 207.508 26.263 207.18 25.6484C206.852 25.0286 206.688 24.3359 206.688 23.5703V23.25C206.688 22.3698 206.854 21.6042 207.188 20.9531C207.521 20.2969 207.977 19.7891 208.555 19.4297C209.138 19.0703 209.797 18.8906 210.531 18.8906C211.344 18.8906 212.018 19.0677 212.555 19.4219C213.091 19.7708 213.492 20.2578 213.758 20.8828C214.023 21.5026 214.156 22.2214 214.156 23.0391V23.875H207.617V22.4766H212.242V22.3281C212.232 22 212.169 21.6927 212.055 21.4062C211.94 21.1198 211.758 20.888 211.508 20.7109C211.263 20.5339 210.935 20.4453 210.523 20.4453C210.112 20.4453 209.766 20.5625 209.484 20.7969C209.203 21.026 208.99 21.3516 208.844 21.7734C208.698 22.1901 208.625 22.6823 208.625 23.25V23.5703C208.625 24.0495 208.714 24.4792 208.891 24.8594C209.068 25.2396 209.326 25.5417 209.664 25.7656C210.003 25.9844 210.406 26.0938 210.875 26.0938C211.328 26.0938 211.729 26.0052 212.078 25.8281C212.432 25.651 212.737 25.3958 212.992 25.0625L214.008 26.0781C213.742 26.4792 213.341 26.8438 212.805 27.1719C212.273 27.4948 211.591 27.6562 210.758 27.6562Z" fill="black"/>
<defs>
<linearGradient id="paint0_linear_42_2021" x1="382" y1="-30" x2="1.62097e-05" y2="79" gradientUnits="userSpaceOnUse">
<stop stop-color="#BC66FF"/>
<stop offset="1" stop-color="#DEB5FF"/>
</linearGradient>
</defs>
</svg>
