<svg width="44" height="44" viewBox="0 0 44 44" fill="none" xmlns="http://www.w3.org/2000/svg">
<rect x="44" y="44" width="44" height="44" rx="12" transform="rotate(180 44 44)" fill="white" fill-opacity="0.04"/>
<rect x="43.5" y="43.5" width="43" height="43" rx="11.5" transform="rotate(180 43.5 43.5)" stroke="white" stroke-opacity="0.04"/>
<path d="M29.5 22.0001C29.5 22.1659 29.4342 22.3248 29.3169 22.442C29.1997 22.5593 29.0408 22.6251 28.875 22.6251H16.6336L21.1922 27.1829C21.2503 27.241 21.2963 27.3099 21.3277 27.3858C21.3592 27.4617 21.3754 27.543 21.3754 27.6251C21.3754 27.7072 21.3592 27.7885 21.3277 27.8644C21.2963 27.9403 21.2503 28.0092 21.1922 28.0673C21.1341 28.1254 21.0652 28.1714 20.9893 28.2028C20.9134 28.2343 20.8321 28.2505 20.75 28.2505C20.6679 28.2505 20.5866 28.2343 20.5107 28.2028C20.4348 28.1714 20.3659 28.1254 20.3078 28.0673L14.6828 22.4423C14.6247 22.3842 14.5786 22.3153 14.5472 22.2394C14.5157 22.1636 14.4995 22.0822 14.4995 22.0001C14.4995 21.918 14.5157 21.8366 14.5472 21.7608C14.5786 21.6849 14.6247 21.616 14.6828 21.5579L20.3078 15.9329C20.4251 15.8156 20.5842 15.7498 20.75 15.7498C20.9159 15.7498 21.0749 15.8156 21.1922 15.9329C21.3095 16.0502 21.3754 16.2093 21.3754 16.3751C21.3754 16.541 21.3095 16.7 21.1922 16.8173L16.6336 21.3751H28.875C29.0408 21.3751 29.1997 21.441 29.3169 21.5582C29.4342 21.6754 29.5 21.8343 29.5 22.0001Z" fill="white"/>
</svg>
