<svg width="24" height="24" viewBox="0 0 24 24" fill="none" xmlns="http://www.w3.org/2000/svg">
<path fill-rule="evenodd" clip-rule="evenodd" d="M6.86 1.25002H6.987C7.338 1.25002 7.564 1.25002 7.785 1.27002C8.73662 1.35897 9.63928 1.73293 10.375 2.34302C10.545 2.48502 10.705 2.64502 10.954 2.89302L11.53 3.47002C12.376 4.31502 12.701 4.63102 13.077 4.84002C13.295 4.96102 13.526 5.05702 13.766 5.12602C14.179 5.24302 14.632 5.25002 15.828 5.25002H16.253C17.526 5.25002 18.553 5.25002 19.364 5.35202C20.205 5.45802 20.92 5.68402 21.508 6.21202C21.606 6.30002 21.7 6.39402 21.788 6.49202C22.317 7.08002 22.542 7.79502 22.648 8.63602C22.75 9.44802 22.75 10.474 22.75 11.747V14.057C22.75 15.894 22.75 17.35 22.597 18.489C22.439 19.661 22.107 20.61 21.359 21.359C20.61 22.107 19.661 22.439 18.489 22.597C17.349 22.75 15.894 22.75 14.056 22.75H9.944C8.106 22.75 6.65 22.75 5.511 22.597C4.339 22.439 3.39 22.107 2.641 21.359C1.893 20.61 1.561 19.661 1.403 18.489C1.25 17.349 1.25 15.894 1.25 14.056V6.86002C1.25 6.06302 1.25 5.55702 1.332 5.12002C1.50884 4.18065 1.96499 3.31648 2.6408 2.64048C3.31662 1.96448 4.18067 1.50811 5.12 1.33102C5.558 1.24902 6.064 1.24902 6.86 1.24902M6.95 2.74902C6.033 2.74902 5.679 2.75202 5.397 2.80502C4.75483 2.92642 4.16417 3.2386 3.70213 3.70081C3.2401 4.16303 2.92815 4.7538 2.807 5.39602C2.753 5.67802 2.75 6.03202 2.75 6.94902V14C2.75 15.907 2.752 17.262 2.89 18.29C3.025 19.295 3.279 19.875 3.702 20.298C4.125 20.721 4.705 20.975 5.711 21.11C6.739 21.248 8.093 21.25 10 21.25H14C15.907 21.25 17.262 21.248 18.29 21.11C19.295 20.975 19.875 20.721 20.298 20.298C20.721 19.875 20.975 19.295 21.11 18.289C21.248 17.262 21.25 15.907 21.25 14V11.798C21.25 10.462 21.249 9.53102 21.16 8.82302C21.073 8.13402 20.914 7.76302 20.673 7.49502C20.62 7.43609 20.5639 7.38001 20.505 7.32702C20.237 7.08602 19.865 6.92702 19.177 6.84002C18.47 6.75102 17.538 6.75002 16.202 6.75002H15.718C14.67 6.75002 13.994 6.75002 13.355 6.56802C13.005 6.46802 12.666 6.32802 12.347 6.15102C11.767 5.82702 11.289 5.35002 10.547 4.60802L10.47 4.53002L9.92 3.98002C9.75939 3.81216 9.59156 3.65134 9.417 3.49802C8.9139 3.08085 8.29671 2.82505 7.646 2.76402C7.41431 2.7493 7.18209 2.74363 6.95 2.74902ZM12 11.25C12.1989 11.25 12.3897 11.329 12.5303 11.4697C12.671 11.6103 12.75 11.8011 12.75 12V13.25H14C14.1989 13.25 14.3897 13.329 14.5303 13.4697C14.671 13.6103 14.75 13.8011 14.75 14C14.75 14.1989 14.671 14.3897 14.5303 14.5304C14.3897 14.671 14.1989 14.75 14 14.75H12.75V16C12.75 16.1989 12.671 16.3897 12.5303 16.5304C12.3897 16.671 12.1989 16.75 12 16.75C11.8011 16.75 11.6103 16.671 11.4697 16.5304C11.329 16.3897 11.25 16.1989 11.25 16V14.75H10C9.80109 14.75 9.61032 14.671 9.46967 14.5304C9.32902 14.3897 9.25 14.1989 9.25 14C9.25 13.8011 9.32902 13.6103 9.46967 13.4697C9.61032 13.329 9.80109 13.25 10 13.25H11.25V12C11.25 11.8011 11.329 11.6103 11.4697 11.4697C11.6103 11.329 11.8011 11.25 12 11.25Z" fill="white" fill-opacity="0.48"/>
</svg>
